# Blender v2.76 (sub 0) OBJ File: ''
# www.blender.org
v -1.000000 1.000000 0.000000
v 1.000000 1.000000 0.000000
v -1.000000 -1.000000 -0.000000
v 1.000000 -1.000000 -0.000000
v 0.750000 1.000000 0.000000
v -0.750000 -1.000000 -0.000000
v -0.750000 1.000000 0.000000
v 0.750000 -1.000000 -0.000000
v -0.750000 0.750000 0.000000
v 0.750000 0.750000 0.000000
v -1.000000 1.000000 0.010000
v 1.000000 1.000000 0.010000
v -1.000000 -1.000000 0.010000
v 1.000000 -1.000000 0.010000
v 0.750000 1.000000 0.010000
v -0.750000 -1.000000 0.010000
v -0.750000 1.000000 0.010000
v 0.750000 -1.000000 0.010000
v -0.750000 0.750000 0.010000
v 0.750000 0.750000 0.010000
vt 0.000100 0.999900
vt 0.000100 0.000100
vt 0.125075 0.125075
vt 0.125075 0.000100
vt 0.874924 0.000100
vt 0.874923 0.125075
vt 0.999898 0.000100
vt 0.125075 0.999900
vt 0.874923 0.999897
vt 0.999898 0.999897
vn 0.000000 0.000000 -1.000000
vn 0.000000 -0.000000 1.000000
vn -1.000000 0.000000 0.000000
vn 0.000000 1.000000 0.000000
vn 1.000000 0.000000 0.000000
vn 0.000000 -1.000000 0.000000
s off
f 3/1/1 1/2/1 9/3/1
f 9/3/1 7/4/1 5/5/1
f 10/6/1 5/5/1 2/7/1
f 13/1/2 16/8/2 19/3/2
f 17/4/2 19/3/2 20/6/2
f 20/6/2 18/9/2 14/10/2
f 3/1/3 13/1/3 11/2/3
f 5/5/4 15/5/4 12/7/4
f 2/7/5 12/7/5 14/10/5
f 6/8/6 16/8/6 13/1/6
f 7/4/4 17/4/4 15/5/4
f 1/2/4 11/2/4 17/4/4
f 4/10/6 14/10/6 18/9/6
f 9/3/5 19/3/5 16/8/5
f 10/6/6 20/6/6 19/3/6
f 8/9/3 18/9/3 20/6/3
f 7/4/1 9/3/1 1/2/1
f 6/8/1 3/1/1 9/3/1
f 10/6/1 9/3/1 5/5/1
f 2/7/1 4/10/1 10/6/1
f 8/9/1 10/6/1 4/10/1
f 19/3/2 17/4/2 11/2/2
f 11/2/2 13/1/2 19/3/2
f 15/5/2 17/4/2 20/6/2
f 14/10/2 12/7/2 20/6/2
f 15/5/2 20/6/2 12/7/2
f 1/2/3 3/1/3 11/2/3
f 2/7/4 5/5/4 12/7/4
f 4/10/5 2/7/5 14/10/5
f 3/1/6 6/8/6 13/1/6
f 5/5/4 7/4/4 15/5/4
f 7/4/4 1/2/4 17/4/4
f 8/9/6 4/10/6 18/9/6
f 6/8/5 9/3/5 16/8/5
f 9/3/6 10/6/6 19/3/6
f 10/6/3 8/9/3 20/6/3
