# Blender v2.76 (sub 0) OBJ File: ''
# www.blender.org
v 1.000000 -0.000000 1.000000
v -1.000000 -0.000000 1.000000
v -1.000000 0.000000 -1.000000
v 1.000000 0.000000 -1.000000
v 1.000000 0.000000 -0.750000
v 0.750000 -0.000000 1.000000
v -1.000000 -0.000000 0.750000
v -0.750000 0.000000 -1.000000
v -0.750000 -0.000000 0.750000
v 0.750000 -0.000000 0.750000
v -0.750000 0.000000 -0.750000
v 0.750000 0.000000 -0.750000
v 1.000000 0.011182 1.000000
v -1.000000 0.011182 1.000000
v -1.000000 0.011182 -1.000000
v 1.000000 0.011182 -1.000000
v 1.000000 0.011182 -0.750000
v 0.750000 0.011182 1.000000
v -1.000000 0.011182 0.750000
v -0.750000 0.011182 -1.000000
v -0.750000 0.011182 0.750000
v 0.750000 0.011182 0.750000
v -0.750000 0.011182 -0.750000
v 0.750000 0.011182 -0.750000
vt 0.000000 -0.000000
vt 0.000000 0.875000
vt 0.125000 0.125000
vt 1.000000 0.000000
vt 0.125000 0.000000
vt 0.875000 0.125000
vt 0.125000 0.875000
vt 0.000000 1.000000
vt 0.875000 0.875000
vt 0.875000 1.000000
vt 1.000000 1.000000
vt 1.000000 0.125000
vn 0.000000 1.000000 0.000000
vn 0.301500 0.904500 0.301500
vn -0.301500 0.904500 0.301500
vn 0.301500 0.904500 -0.301500
vn -0.301500 0.904500 -0.301500
vn -0.000000 -1.000000 -0.000000
vn 0.301500 -0.904500 0.301500
vn -0.301500 -0.904500 0.301500
vn 0.301500 -0.904500 -0.301500
vn -0.301500 -0.904500 -0.301500
vn -1.000000 0.000000 0.000000
vn -0.707100 0.000000 0.707100
vn 1.000000 0.000000 0.000000
vn 0.707100 0.000000 -0.707100
vn 0.000000 0.000000 -1.000000
vn 0.000000 0.000000 1.000000
vn 0.707100 0.000000 0.707100
vn -0.707100 0.000000 -0.707100
s 1
f 1/1/1 5/2/1 10/3/2
f 2/4/1 6/5/1 9/6/3
f 12/7/4 5/2/1 4/8/1
f 11/9/5 8/10/1 3/11/1
f 17/2/6 13/1/6 22/3/7
f 18/5/6 14/4/6 21/6/8
f 16/8/6 24/7/9 20/10/6
f 15/11/6 23/9/10 19/12/6
f 9/6/3 21/6/8 23/9/10
f 5/2/11 17/2/11 16/8/12
f 7/12/13 19/12/13 14/4/14
f 12/7/4 24/7/9 22/3/7
f 2/4/14 14/4/14 18/5/15
f 10/3/2 22/3/7 21/6/8
f 4/8/12 16/8/12 20/10/16
f 8/10/16 20/10/16 15/11/17
f 5/2/11 1/1/18 13/1/18
f 3/11/17 15/11/17 19/12/13
f 11/9/5 23/9/10 24/7/9
f 6/5/15 18/5/15 13/1/18
f 12/7/4 10/3/2 5/2/1
f 6/5/1 1/1/1 10/3/2
f 10/3/2 9/6/3 6/5/1
f 7/12/1 2/4/1 9/6/3
f 4/8/1 8/10/1 12/7/4
f 11/9/5 12/7/4 8/10/1
f 3/11/1 7/12/1 11/9/5
f 9/6/3 11/9/5 7/12/1
f 18/5/6 22/3/7 13/1/6
f 24/7/9 17/2/6 22/3/7
f 19/12/6 21/6/8 14/4/6
f 22/3/7 18/5/6 21/6/8
f 23/9/10 20/10/6 24/7/9
f 16/8/6 17/2/6 24/7/9
f 21/6/8 19/12/6 23/9/10
f 15/11/6 20/10/6 23/9/10
f 11/9/5 9/6/3 23/9/10
f 4/8/12 5/2/11 16/8/12
f 2/4/14 7/12/13 14/4/14
f 10/3/2 12/7/4 22/3/7
f 6/5/15 2/4/14 18/5/15
f 9/6/3 10/3/2 21/6/8
f 8/10/16 4/8/12 20/10/16
f 3/11/17 8/10/16 15/11/17
f 17/2/11 5/2/11 13/1/18
f 7/12/13 3/11/17 19/12/13
f 12/7/4 11/9/5 24/7/9
f 1/1/18 6/5/15 13/1/18
